<mxfile host="app.diagrams.net" modified="2023-09-13T07:42:30.075Z" agent="Mozilla/5.0 (Windows NT 10.0; Win64; x64) AppleWebKit/537.36 (KHTML, like Gecko) Chrome/116.0.0.0 Safari/537.36" version="21.6.9" etag="Tc9OO4aVUkPmn2W0_nX2" type="github">
  <diagram name="Page-1" id="O-lCMJrV2D6FLb9oOO0y">
    <mxGraphModel>
      <root>
        <mxCell id="0" />
        <mxCell id="1" parent="0" />
      </root>
    </mxGraphModel>
  </diagram>
</mxfile>
